<svg data-v-fde0c5aa="" xmlns="http://www.w3.org/2000/svg" viewBox="0 0 300 300" class="iconAbove"><!----><defs data-v-fde0c5aa=""><!----></defs><rect data-v-fde0c5aa="" fill="transparent" x="0" y="0" width="300px" height="300px" class="logo-background-square"></rect><defs data-v-fde0c5aa=""><!----></defs><g data-v-fde0c5aa="" id="42cf4ef5-9fc0-4cb3-aebc-7f89b9bc295b" fill="#000000" transform="matrix(4.628805248675536,0,0,4.628805248675536,16.89870040613584,176.82089866237038)"><path d="M3.25 7.83L4.98 7.83L4.98 7.83Q5.38 7.83 5.72 7.71L5.72 7.71L5.72 7.71Q6.06 7.59 6.26 7.39L6.26 7.39L6.26 7.39Q6.54 7.10 6.73 6.62L6.73 6.62L6.73 6.62Q6.93 6.15 6.93 5.60L6.93 5.60L6.93 5.60Q6.93 5.07 6.74 4.63L6.74 4.63L6.74 4.63Q6.55 4.19 6.26 3.84L6.26 3.84L6.26 3.84Q6.02 3.60 5.68 3.46L5.68 3.46L5.68 3.46Q5.33 3.33 4.93 3.33L4.93 3.33L3.25 3.33L3.25 7.83ZM5.29 8.64L3.25 8.64L3.25 11.70L4.58 12.00L4.58 12.60L0.67 12.60L0.67 12.00L1.85 11.70L1.85 3.42L0.67 3.12L0.67 2.52L5.31 2.52L5.31 2.52Q5.96 2.52 6.50 2.70L6.50 2.70L6.50 2.70Q7.04 2.87 7.41 3.19L7.41 3.19L7.41 3.19Q7.90 3.64 8.18 4.24L8.18 4.24L8.18 4.24Q8.47 4.84 8.47 5.52L8.47 5.52L8.47 5.52Q8.47 6.22 8.17 6.87L8.17 6.87L8.17 6.87Q7.87 7.52 7.38 7.95L7.38 7.95L7.38 7.95Q7.01 8.27 6.47 8.46L6.47 8.46L6.47 8.46Q5.92 8.64 5.29 8.64L5.29 8.64ZM9.27 10.96L9.27 10.96L9.27 10.96Q9.27 10.42 9.51 10.00L9.51 10.00L9.51 10.00Q9.76 9.58 10.29 9.25L10.29 9.25L10.29 9.25Q10.82 8.92 11.66 8.68L11.66 8.68L11.66 8.68Q12.50 8.44 13.68 8.26L13.68 8.26L13.68 8.26Q13.61 7.43 13.52 6.97L13.52 6.97L13.52 6.97Q13.43 6.51 13.27 6.23L13.27 6.23L13.27 6.23Q13.08 5.87 12.73 5.69L12.73 5.69L12.73 5.69Q12.38 5.52 11.97 5.52L11.97 5.52L11.97 5.52Q11.58 5.52 11.26 5.66L11.26 5.66L11.26 5.66Q10.95 5.80 10.84 6.03L10.84 6.03L10.84 6.03Q11.03 6.19 11.12 6.40L11.12 6.40L11.12 6.40Q11.21 6.62 11.21 6.82L11.21 6.82L11.21 6.82Q11.21 7.17 10.98 7.37L10.98 7.37L10.98 7.37Q10.75 7.57 10.42 7.57L10.42 7.57L10.42 7.57Q10.08 7.57 9.86 7.35L9.86 7.35L9.86 7.35Q9.65 7.13 9.65 6.72L9.65 6.72L9.65 6.72Q9.65 6.29 9.88 5.94L9.88 5.94L9.88 5.94Q10.12 5.60 10.51 5.37L10.51 5.37L10.51 5.37Q10.89 5.14 11.38 5.02L11.38 5.02L11.38 5.02Q11.86 4.90 12.33 4.90L12.33 4.90L12.33 4.90Q13.52 4.90 14.21 5.59L14.21 5.59L14.21 5.59Q15.08 6.45 15.08 8.67L15.08 8.67L15.08 10.70L15.08 10.70Q15.08 11.40 15.17 11.65L15.17 11.65L15.17 11.65Q15.26 11.91 15.57 11.91L15.57 11.91L16.20 11.91L16.20 12.33L16.20 12.33Q15.19 12.74 14.63 12.74L14.63 12.74L14.63 12.74Q14.42 12.74 14.28 12.67L14.28 12.67L14.28 12.67Q14.14 12.60 14.06 12.42L14.06 12.42L14.06 12.42Q13.97 12.25 13.94 11.96L13.94 11.96L13.94 11.96Q13.90 11.66 13.90 11.21L13.90 11.21L13.85 11.21L13.85 11.21Q13.41 11.93 12.70 12.33L12.70 12.33L12.70 12.33Q11.98 12.74 11.16 12.74L11.16 12.74L11.16 12.74Q10.28 12.74 9.77 12.27L9.77 12.27L9.77 12.27Q9.27 11.80 9.27 10.96ZM11.75 11.93L11.75 11.93L11.75 11.93Q12.14 11.93 12.56 11.72L12.56 11.72L12.56 11.72Q12.99 11.52 13.29 11.16L13.29 11.16L13.29 11.16Q13.72 10.63 13.72 9.59L13.72 9.59L13.72 9.59Q13.72 9.35 13.71 9.12L13.71 9.12L13.71 9.12Q13.69 8.89 13.66 8.68L13.66 8.68L13.66 8.68Q12.81 8.85 12.24 9.03L12.24 9.03L12.24 9.03Q11.68 9.21 11.33 9.44L11.33 9.44L11.33 9.44Q10.99 9.67 10.85 9.97L10.85 9.97L10.85 9.97Q10.71 10.28 10.71 10.67L10.71 10.67L10.71 10.67Q10.71 11.27 10.98 11.60L10.98 11.60L10.98 11.60Q11.26 11.93 11.75 11.93ZM16.38 5.74L16.38 5.24L17.74 5.04L17.92 3.28L19.10 3.11L19.10 5.04L20.89 5.04L20.89 5.74L19.10 5.74L19.10 10.74L19.10 10.74Q19.10 11.21 19.11 11.39L19.11 11.39L19.11 11.39Q19.12 11.56 19.17 11.68L19.17 11.68L19.17 11.68Q19.21 11.79 19.32 11.82L19.32 11.82L19.32 11.82Q19.43 11.84 19.68 11.84L19.68 11.84L20.66 11.84L20.66 12.25L20.66 12.25Q19.99 12.50 19.48 12.62L19.48 12.62L19.48 12.62Q18.97 12.74 18.66 12.74L18.66 12.74L18.66 12.74Q18.03 12.74 17.85 12.22L17.85 12.22L17.85 12.22Q17.78 12.05 17.76 11.79L17.76 11.79L17.76 11.79Q17.74 11.54 17.74 11.00L17.74 11.00L17.74 5.74L16.38 5.74ZM25.75 5.85L25.75 5.85L25.75 5.85Q25.62 5.77 25.47 5.77L25.47 5.77L25.47 5.77Q25.20 5.77 24.91 6.10L24.91 6.10L24.91 6.10Q24.61 6.43 24.39 6.93L24.39 6.93L24.39 6.93Q24.19 7.41 24.08 7.97L24.08 7.97L24.08 7.97Q23.97 8.54 23.97 9.14L23.97 9.14L23.97 11.76L25.48 12.03L25.48 12.60L21.53 12.60L21.53 12.03L22.61 11.76L22.61 5.88L21.53 5.61L21.53 5.04L23.55 5.04L23.86 6.89L23.91 6.89L23.91 6.89Q24.23 5.94 24.77 5.42L24.77 5.42L24.77 5.42Q25.31 4.90 25.98 4.90L25.98 4.90L25.98 4.90Q26.53 4.90 26.89 5.24L26.89 5.24L26.89 5.24Q27.26 5.59 27.26 6.16L27.26 6.16L27.26 6.16Q27.26 6.58 27.04 6.82L27.04 6.82L27.04 6.82Q26.82 7.07 26.46 7.07L26.46 7.07L26.46 7.07Q26.10 7.07 25.89 6.84L25.89 6.84L25.89 6.84Q25.68 6.61 25.68 6.23L25.68 6.23L25.68 6.23Q25.68 6.15 25.69 6.08L25.69 6.08L25.69 6.08Q25.70 6.01 25.75 5.85ZM29.02 5.88L27.94 5.61L27.94 5.04L30.38 5.04L30.38 11.76L31.46 12.03L31.46 12.60L27.94 12.60L27.94 12.03L29.02 11.76L29.02 5.88ZM28.83 2.79L28.83 2.79L28.83 2.79Q28.83 2.38 29.06 2.14L29.06 2.14L29.06 2.14Q29.29 1.90 29.69 1.90L29.69 1.90L29.69 1.90Q30.10 1.90 30.34 2.14L30.34 2.14L30.34 2.14Q30.58 2.38 30.58 2.79L30.58 2.79L30.58 2.79Q30.58 3.19 30.34 3.42L30.34 3.42L30.34 3.42Q30.10 3.65 29.69 3.65L29.69 3.65L29.69 3.65Q29.29 3.65 29.06 3.42L29.06 3.42L29.06 3.42Q28.83 3.19 28.83 2.79ZM36.04 4.90L36.04 4.90L36.04 4.90Q37.25 4.90 37.98 5.49L37.98 5.49L37.98 5.49Q38.70 6.09 38.70 7.08L38.70 7.08L38.70 7.08Q38.70 8.16 37.83 8.16L37.83 8.16L37.83 8.16Q37.42 8.16 37.20 7.94L37.20 7.94L37.20 7.94Q36.97 7.71 36.97 7.34L36.97 7.34L36.97 7.34Q36.97 6.99 37.16 6.73L37.16 6.73L37.16 6.73Q37.35 6.48 37.67 6.38L37.67 6.38L37.67 6.38Q37.27 5.61 36.12 5.61L36.12 5.61L36.12 5.61Q34.97 5.61 34.45 6.36L34.45 6.36L34.45 6.36Q33.92 7.10 33.92 8.69L33.92 8.69L33.92 8.69Q33.92 10.02 34.29 10.72L34.29 10.72L34.29 10.72Q34.85 11.80 36.12 11.80L36.12 11.80L36.12 11.80Q36.76 11.80 37.35 11.52L37.35 11.52L37.35 11.52Q37.94 11.24 38.36 10.72L38.36 10.72L38.78 11.06L38.78 11.06Q38.22 11.93 37.49 12.33L37.49 12.33L37.49 12.33Q36.76 12.74 35.78 12.74L35.78 12.74L35.78 12.74Q34.80 12.74 34.08 12.34L34.08 12.34L34.08 12.34Q33.36 11.94 32.96 11.17L32.96 11.17L32.96 11.17Q32.72 10.72 32.59 10.14L32.59 10.14L32.59 10.14Q32.45 9.56 32.45 8.90L32.45 8.90L32.45 8.90Q32.45 7.99 32.70 7.26L32.70 7.26L32.70 7.26Q32.96 6.52 33.42 6.00L33.42 6.00L33.42 6.00Q33.89 5.47 34.56 5.19L34.56 5.19L34.56 5.19Q35.22 4.90 36.04 4.90ZM44.49 12.03L45.32 11.76L43.16 8.85L42.10 9.74L42.10 11.76L43.18 12.03L43.18 12.60L39.66 12.60L39.66 12.03L40.74 11.76L40.74 2.52L39.66 2.25L39.66 1.68L42.10 1.68L42.10 9.09L45.08 5.88L44.16 5.61L44.16 5.04L47.17 5.04L47.17 5.61L46.14 5.88L44.03 8.05L46.82 11.79L47.56 12.03L47.56 12.60L44.49 12.60L44.49 12.03ZM49.45 5.81L48.79 5.81L48.79 5.81Q48.79 5.35 48.73 4.89L48.73 4.89L48.73 4.89Q48.68 4.42 48.61 4.01L48.61 4.01L48.61 4.01Q48.54 3.60 48.48 3.27L48.48 3.27L48.48 3.27Q48.43 2.94 48.43 2.74L48.43 2.74L48.43 2.74Q48.43 2.39 48.57 2.18L48.57 2.18L48.57 2.18Q48.72 1.96 49.13 1.96L49.13 1.96L49.13 1.96Q49.52 1.96 49.66 2.17L49.66 2.17L49.66 2.17Q49.81 2.38 49.81 2.74L49.81 2.74L49.81 2.74Q49.81 2.94 49.76 3.27L49.76 3.27L49.76 3.27Q49.70 3.60 49.63 4.01L49.63 4.01L49.63 4.01Q49.56 4.42 49.50 4.89L49.50 4.89L49.50 4.89Q49.45 5.35 49.45 5.81L49.45 5.81ZM53.84 12.10L53.84 12.10L53.84 12.10Q54.64 12.10 55.13 11.78L55.13 11.78L55.13 11.78Q55.62 11.47 55.62 10.88L55.62 10.88L55.62 10.88Q55.62 10.53 55.44 10.29L55.44 10.29L55.44 10.29Q55.26 10.05 54.97 9.88L54.97 9.88L54.97 9.88Q54.68 9.72 54.33 9.60L54.33 9.60L54.33 9.60Q53.97 9.48 53.63 9.38L53.63 9.38L53.63 9.38Q53.20 9.25 52.79 9.09L52.79 9.09L52.79 9.09Q52.37 8.92 52.04 8.66L52.04 8.66L52.04 8.66Q51.72 8.40 51.52 8.03L51.52 8.03L51.52 8.03Q51.32 7.66 51.32 7.13L51.32 7.13L51.32 7.13Q51.32 6.12 52.06 5.51L52.06 5.51L52.06 5.51Q52.79 4.90 54.11 4.90L54.11 4.90L54.11 4.90Q55.23 4.90 55.88 5.37L55.88 5.37L55.88 5.37Q56.53 5.84 56.53 6.65L56.53 6.65L56.53 6.65Q56.53 7.10 56.34 7.35L56.34 7.35L56.34 7.35Q56.14 7.60 55.78 7.60L55.78 7.60L55.78 7.60Q55.45 7.60 55.24 7.41L55.24 7.41L55.24 7.41Q55.03 7.21 55.03 6.90L55.03 6.90L55.03 6.90Q55.03 6.64 55.17 6.42L55.17 6.42L55.17 6.42Q55.31 6.20 55.54 6.10L55.54 6.10L55.54 6.10Q55.33 5.81 55.00 5.68L55.00 5.68L55.00 5.68Q54.67 5.54 54.15 5.54L54.15 5.54L54.15 5.54Q52.47 5.54 52.47 6.73L52.47 6.73L52.47 6.73Q52.47 7.06 52.58 7.27L52.58 7.27L52.58 7.27Q52.70 7.48 52.92 7.63L52.92 7.63L52.92 7.63Q53.14 7.78 53.47 7.90L53.47 7.90L53.47 7.90Q53.80 8.02 54.24 8.16L54.24 8.16L54.24 8.16Q54.71 8.32 55.17 8.48L55.17 8.48L55.17 8.48Q55.64 8.65 56.01 8.90L56.01 8.90L56.01 8.90Q56.38 9.16 56.61 9.53L56.61 9.53L56.61 9.53Q56.84 9.91 56.84 10.47L56.84 10.47L56.84 10.47Q56.84 11.02 56.62 11.44L56.62 11.44L56.62 11.44Q56.39 11.86 55.99 12.14L55.99 12.14L55.99 12.14Q55.58 12.43 55.02 12.59L55.02 12.59L55.02 12.59Q54.46 12.74 53.79 12.74L53.79 12.74L53.79 12.74Q52.54 12.74 51.79 12.24L51.79 12.24L51.79 12.24Q51.04 11.75 51.04 10.88L51.04 10.88L51.04 10.88Q51.04 10.43 51.25 10.17L51.25 10.17L51.25 10.17Q51.45 9.91 51.83 9.91L51.83 9.91L51.83 9.91Q52.16 9.91 52.39 10.11L52.39 10.11L52.39 10.11Q52.63 10.30 52.63 10.63L52.63 10.63L52.63 10.63Q52.63 10.89 52.48 11.13L52.48 11.13L52.48 11.13Q52.33 11.37 52.12 11.48L52.12 11.48L52.12 11.48Q52.30 11.76 52.77 11.93L52.77 11.93L52.77 11.93Q53.24 12.10 53.84 12.10Z"></path></g><defs data-v-fde0c5aa=""><linearGradient data-v-fde0c5aa="" gradientTransform="rotate(25)" id="9efb1164-11dd-4d5a-ab0d-f024219cd016" x1="0%" y1="0%" x2="100%" y2="0%"><stop data-v-fde0c5aa="" offset="0%" stop-color="#288B58" stop-opacity="1"></stop><stop data-v-fde0c5aa="" offset="100%" stop-color="#1522F1" stop-opacity="1"></stop></linearGradient></defs><g data-v-fde0c5aa="" id="d791bf05-7cdb-4001-88b5-06c8631c7f4b" stroke="none" fill="url(#9efb1164-11dd-4d5a-ab0d-f024219cd016)" transform="matrix(1.294426916962632,0,0,1.294426916962632,82.04258685946182,45.5683775220687)"><style></style><path d="M67.5 14.4h-30c-7.2 0-13 5.8-13 13v66.1h12v-31h31c7.2 0 13-5.8 13-13v-22c0-7.2-5.8-13.1-13-13.1zm1 35.1c0 .5-.5 1-1 1h-31v-23c0-.5.5-1 1-1h30c.5 0 1 .5 1 1v22z"></path></g><!----></svg>